<?xml version="1.0" encoding="UTF-8" standalone="no"?>
<!-- Created with Inkscape (http://www.inkscape.org/) -->
<!DOCTYPE svg PUBLIC "-//W3C//DTD SVG 1.1//EN" "http://www.w3.org/Graphics/SVG/1.1/DTD/svg11.dtd">
<svg
   xmlns:dc="http://purl.org/dc/elements/1.1/"
   xmlns:cc="http://creativecommons.org/ns#"
   xmlns:rdf="http://www.w3.org/1999/02/22-rdf-syntax-ns#"
   xmlns:svg="http://www.w3.org/2000/svg"
   xmlns="http://www.w3.org/2000/svg"
   version="1.1"
   width="400"
   height="385"
   viewBox="0 0 320.00001 307.99998"
   id="svg6479"
   style="fill-rule:evenodd">
  <metadata
     id="metadata6545">
    <rdf:RDF>
      <cc:Work
         rdf:about="">
        <dc:format>image/svg+xml</dc:format>
        <dc:type
           rdf:resource="http://purl.org/dc/dcmitype/StillImage" />
        <dc:title></dc:title>
      </cc:Work>
    </rdf:RDF>
  </metadata>
  <defs
     id="defs6543" />
  <g
     transform="matrix(0.94782448,0,0,0.94782448,-39.187916,-114.76228)"
     id="g6615">
    <path
       d="m 114.273,144.111 192.03,0 0,208.8 c 1.065,18.353 -11.788,27.585 -22.943,29.539 -31.646,7.007 -58.18,11.909 -75.075,32.034 -13.414,-17.053 -38.728,-21.068 -70.879,-31.227 -10.518,-2.225 -22.357,-11.456 -23.133,-31.358 l 0,-198.266 0,-9.522 z"
       id="path6485"
       style="fill:#005d9f;stroke:none" />
    <path
       d="m 196.841,423.485 c -4.167,-5.342 -10.97,-9.505 -21.979,-13.528 l 0,0 c -10.741,-3.961 -24.896,-7.501 -41.225,-12.624 l 0,0 c -7.885,-1.823 -16.04,-6.16 -22.483,-13.622 l 0,0 c -6.667,-7.667 -10.988,-18.523 -11.4309,-31.244 l 0,0 -0.0123,-0.301 0,-198.533 0,-9.524 0,-14.559 221.1502,0 0,222.953 c 0.041,0.851 0.06,1.691 0.06,2.519 l 0,0 c 0.098,12.023 -4.712,22.622 -11.643,29.553 l 0,0 c -6.802,6.886 -15.023,10.635 -22.98,12.136 l 0,0 c -15.879,3.497 -29.854,6.43 -41.035,10.521 l 0,0 c -11.299,4.138 -19.464,9.063 -25.828,16.611 l 0,0 -11.52,13.721 z"
       id="path6487"
       style="fill:black;stroke:none" />
    <path
       d="m 114.273,144.111 192.03,0 0,208.8 c 1.065,18.353 -11.788,27.585 -22.943,29.539 -31.646,7.007 -58.18,11.909 -75.075,32.034 -13.414,-17.053 -38.728,-21.068 -70.879,-31.227 -10.518,-2.225 -22.357,-11.456 -23.133,-31.358 l 0,-198.266 0,-9.522 z"
       id="path6489"
       style="fill:#21488b;fill-opacity:1;stroke:none" />
    <path
       d="M 207.466,415.129 C 194.48,398.516 169.348,394.401 137.191,384.273 l 0,0 C 126.265,382.002 113.994,372.27 113.233,351.9 l 0,0 0,-198.265 0,-9.525 0,-1.041 194.112,0 -0.006,209.783 c 0.043,0.736 0.065,1.459 0.065,2.169 l 0,-0.001 c 0.007,17.526 -12.794,26.549 -23.819,28.445 l 0.001,-10e-4 c -31.703,6.999 -57.957,11.931 -74.506,31.685 l 0,0 -0.82,0.982 -0.794,-1.002 z m -92.153,-261.494 0,198.222 c 0.79,19.473 12.197,28.203 22.406,30.409 l 0,-0.001 c 31.439,9.97 56.573,13.933 70.585,30.597 l 0,0 c 17.266,-19.694 43.735,-24.524 74.877,-31.437 l 0,0 c 10.358,-1.86 22.135,-10.027 22.144,-26.404 l 0,-0.001 c -0.004,-0.672 -0.022,-1.352 -0.065,-2.109 l 0,0 0,-207.758 -189.947,0 0,8.482 z"
       id="path6491"
       style="fill:white;stroke:none" />
    <path
       d="m 174.993,394.582 0,-249.111 69.374,0 0,246.673 c -14.461,4.748 -26.745,11.218 -36.082,22.34 -7.592,-9.651 -18.995,-15.125 -33.292,-19.902 z"
       id="path6493"
       style="fill:black;stroke:none" />
    <path
       d="m 176.453,351.758 0,20.518 c 0,0.709 0.163,1.191 0.491,1.443 0.327,0.252 0.882,0.377 1.663,0.377 l 0.717,0 0,1.719 -0.377,0 -11.822,0 0,-1.719 0.794,0 c 0.805,0 1.359,-0.137 1.66,-0.411 0.303,-0.276 0.455,-0.744 0.455,-1.409 l 0,-13.026 c 0,-0.941 -0.114,-1.615 -0.341,-2.027 -0.227,-0.415 -1.007,-0.619 -2.342,-0.619 -0.05,0 -0.107,0 -0.169,0 -0.063,0 -0.121,0 -0.171,0 l 0,-1.135 0.152,0 c 0.806,0 1.767,-0.217 2.889,-0.653 1.121,-0.436 2.474,-1.455 4.06,-3.058 l 0.378,0 1.963,0 z"
       id="path6495"
       style="fill:#c29800;fill-opacity:1;stroke:none" />
    <path
       d="m 194.149,367.085 c -0.919,0.207 -1.858,0.311 -2.813,0.311 l -0.379,0 c -2.518,0 -4.356,-0.78 -5.515,-2.338 -1.158,-1.557 -1.737,-3.311 -1.737,-5.258 0,-2.726 0.894,-4.748 2.682,-6.065 1.787,-1.318 3.965,-1.977 6.534,-1.977 l 0.378,0 c 3.801,0 6.413,1.071 7.838,3.212 1.42,2.143 2.132,4.887 2.132,8.233 0,0.664 -0.031,1.357 -0.094,2.079 -0.063,0.721 -0.183,1.45 -0.359,2.182 -0.48,2.222 -1.485,4.244 -3.021,6.066 -1.536,1.82 -3.941,2.731 -7.214,2.731 l -0.377,0.034 c -2.015,-0.023 -3.583,-0.405 -4.702,-1.15 -1.121,-0.745 -1.807,-1.575 -2.06,-2.491 -0.049,-0.138 -0.087,-0.288 -0.113,-0.447 -0.025,-0.161 -0.038,-0.311 -0.038,-0.448 0,-0.618 0.234,-1.151 0.699,-1.598 0.466,-0.445 1.089,-0.669 1.87,-0.669 l 0.377,0 c 0.127,0 0.265,0.01 0.417,0.035 0.15,0.02 0.314,0.069 0.489,0.136 0.328,0.137 0.624,0.36 0.887,0.671 0.267,0.308 0.398,0.773 0.398,1.393 0,0.159 -0.006,0.324 -0.019,0.496 -0.013,0.172 -0.043,0.351 -0.094,0.535 0,0.044 -0.007,0.09 -0.018,0.137 -0.014,0.045 -0.02,0.091 -0.02,0.136 0,0.045 0,0.093 0,0.138 0,0.045 0,0.09 0,0.138 0,0.045 0.006,0.091 0.02,0.136 0.011,0.048 0.03,0.092 0.055,0.138 0.101,0.161 0.285,0.304 0.548,0.431 0.265,0.124 0.636,0.199 1.114,0.222 2.015,-0.069 3.312,-0.946 3.891,-2.63 0.579,-1.683 0.88,-3.568 0.906,-5.653 -0.855,0.549 -1.743,0.929 -2.662,1.134 z m -2.984,-12.15 c -0.643,0.723 -0.988,2.275 -1.039,4.658 0,0.114 0,0.237 0,0.362 0,0.125 0,0.246 0,0.36 0.051,1.557 0.283,2.681 0.699,3.369 0.414,0.685 0.875,1.146 1.379,1.374 0.2,0.092 0.408,0.154 0.622,0.189 0.215,0.034 0.409,0.053 0.586,0.053 0.151,-0.001 0.301,-0.014 0.453,-0.035 0.151,-0.024 0.302,-0.059 0.453,-0.104 0.604,-0.16 1.153,-0.629 1.643,-1.409 0.491,-0.78 0.737,-2.165 0.737,-4.159 0,-1.764 -0.209,-3.048 -0.624,-3.85 -0.415,-0.8 -0.863,-1.329 -1.341,-1.58 -0.251,-0.137 -0.492,-0.229 -0.717,-0.275 -0.225,-0.044 -0.427,-0.069 -0.604,-0.069 -0.855,0.025 -1.605,0.397 -2.247,1.116 z"
       id="path6497"
       style="fill:#c29800;fill-opacity:1;stroke:none" />
    <path
       d="m 227.367,369.216 -3.589,0 0,3.093 c 0,0.504 0.108,0.929 0.321,1.272 0.215,0.345 0.851,0.515 1.908,0.515 l 1.209,0 0,1.719 -0.379,0 -12.802,0 0,-1.719 1.094,0 c 1.058,0 1.693,-0.17 1.908,-0.515 0.214,-0.343 0.322,-0.768 0.322,-1.271 l 0,-3.094 -10.123,0 0,-1.855 10.348,-15.122 0.379,0 5.815,0 0,14.915 3.589,0 0,2.062 z m -17.147,-2.062 7.139,0 0,-10.688 -7.139,10.482 0,0.206 z"
       id="path6499"
       style="fill:#c29800;fill-opacity:1;stroke:none" />
    <path
       d="m 240.529,361.262 c 0.593,-0.197 1.202,-0.352 1.832,-0.465 0.328,-0.046 0.655,-0.081 0.983,-0.104 0.327,-0.021 0.653,-0.034 0.981,-0.034 l 0.378,-10e-4 c 2.191,0 3.947,0.678 5.267,2.029 1.323,1.35 1.984,3.196 1.984,5.533 0,2.428 -0.868,4.375 -2.606,5.841 -1.737,1.467 -4.192,2.2 -7.364,2.2 l -0.378,0.034 c -0.454,-0.023 -0.937,-0.063 -1.454,-0.119 -0.517,-0.058 -1.039,-0.167 -1.568,-0.326 -1.56,-0.436 -2.983,-1.457 -4.268,-3.058 -1.283,-1.605 -1.926,-4.252 -1.926,-7.941 0,-0.641 0.032,-1.315 0.094,-2.027 0.064,-0.71 0.171,-1.42 0.322,-2.131 0.478,-2.245 1.485,-4.296 3.021,-6.151 1.536,-1.858 3.954,-2.784 7.25,-2.784 l 0.38,0 c 2.064,0 3.657,0.388 4.778,1.17 1.119,0.778 1.794,1.636 2.019,2.576 0.051,0.138 0.083,0.269 0.096,0.397 0.012,0.124 0.018,0.256 0.018,0.392 0,0.643 -0.239,1.174 -0.717,1.6 -0.478,0.423 -1.084,0.635 -1.813,0.635 l -0.379,-0.001 c -0.579,0 -1.095,-0.188 -1.547,-0.565 -0.454,-0.379 -0.68,-0.922 -0.68,-1.634 0,-0.068 0.006,-0.136 0.018,-0.205 0.014,-0.07 0.02,-0.138 0.02,-0.208 0,-0.044 0.005,-0.089 0.018,-0.138 0.013,-0.044 0.019,-0.09 0.019,-0.135 0.026,-0.069 0.044,-0.138 0.056,-0.207 0.013,-0.069 0.02,-0.126 0.02,-0.172 0.025,-0.046 0.037,-0.096 0.037,-0.155 0,-0.056 0,-0.096 0,-0.119 l -0.037,-0.243 c -0.076,-0.297 -0.253,-0.501 -0.529,-0.617 -0.277,-0.116 -0.579,-0.195 -0.907,-0.241 -0.075,-0.023 -0.151,-0.039 -0.226,-0.052 -0.076,-0.011 -0.152,-0.017 -0.227,-0.017 -0.025,0 -0.05,0 -0.076,0 -0.025,0 -0.037,-0.01 -0.037,-0.034 -0.025,0 -0.051,0 -0.076,0 -0.025,0 -0.051,0 -0.076,0 -0.024,0 -0.05,0 -0.075,0 -0.025,0 -0.05,0 -0.077,0 -0.049,0.024 -0.086,0.034 -0.112,0.034 -0.025,0 -0.051,0 -0.075,0 -1.663,0.229 -2.738,1.164 -3.23,2.802 -0.49,1.639 -0.762,3.452 -0.811,5.448 0.528,-0.345 1.089,-0.613 1.68,-0.807 z m 2.039,12.937 c 0.115,-0.022 0.221,-0.044 0.322,-0.069 0.68,-0.159 1.296,-0.644 1.851,-1.461 0.553,-0.813 0.83,-2.215 0.83,-4.208 0,-2.177 -0.308,-3.643 -0.925,-4.399 -0.616,-0.758 -1.29,-1.192 -2.021,-1.307 -0.05,0 -0.106,-0.006 -0.17,-0.016 -0.063,-0.011 -0.132,-0.018 -0.207,-0.018 -0.857,0.022 -1.618,0.419 -2.285,1.186 -0.668,0.767 -1,2.286 -1,4.554 0,1.512 0.219,2.835 0.659,3.97 0.44,1.134 1.316,1.734 2.626,1.803 0.101,0 0.207,-0.01 0.32,-0.035 z"
       id="path6501"
       style="fill:#c29800;fill-opacity:1;stroke:none" />
    <path
       d="m 207.056,415.445 c -12.759,-16.378 -37.769,-20.547 -70.043,-30.679 l 0,0 c -11.11,-2.319 -23.549,-12.303 -24.3,-32.867 l 0,0 0,-198.266 0,-9.52 0,-1.56 195.149,0 -0.004,210.269 c 0.047,0.749 0.063,1.48 0.063,2.198 l 0,-10e-4 c 0.014,17.817 -13.044,27.049 -24.223,28.953 l 0,0 c -31.729,6.999 -57.844,11.939 -74.219,31.512 l 0,0 -1.237,1.471 -1.186,-1.51 z m -91.223,-261.812 -0.004,198.203 c 0.804,19.257 11.991,27.739 21.898,29.895 l 0,0 0.068,0.013 0.081,0.026 c 31.099,9.884 56.149,13.815 70.435,30.304 l 0,0 c 17.438,-19.496 43.874,-24.293 74.779,-31.163 l 0,0 c 10.183,-1.842 21.698,-9.801 21.715,-25.891 l 0,-10e-4 c -0.005,-0.658 -0.021,-1.333 -0.063,-2.108 l 0,0 0,-207.238 -188.909,0 0,7.96 z"
       id="path6503"
       style="fill:white;stroke:none" />
    <path
       d="m 366.489,201.577 c -4.873,-16.13 -42.906,-20.72 -98.432,-9.888 -19.123,-19.804 -53.224,-27.357 -80.429,-18.377 -28.717,9.476 -50.7,31.908 -55.893,60.571 -53.2361,24.206 -84.8461,47.888 -77.8636,69.005 4.9621,16.447 45.824,19.868 103.0136,8.287 20.261,20.453 52.729,27.375 81.556,17.853 28.663,-9.459 47.501,-31.858 52.743,-60.455 44.02,-18.459 82.709,-43.538 75.305,-66.995 l 0,-0.001 z"
       id="path6505"
       style="fill:#2c2c2b;stroke:none" />
    <path
       d="m 155.874,314.559 c -22.164,4.398 -41.873,6.555 -58.0747,6.555 l 0,-10e-4 c -12.6486,-0.004 -23.1558,-1.294 -31.1631,-3.994 l 0,0 C 58.7026,314.441 52.8538,310.188 50.9075,303.87 l 0,-10e-4 c -0.7493,-2.263 -1.122,-4.577 -1.122,-6.897 l 0,0 c 0.115,-11.532 8.6034,-22.297 22.5049,-33.113 l 0,0 C 86.0021,253.251 105.357,242.532 128.977,231.71 l 0.001,0 c 5.952,-29.163 28.572,-51.771 57.667,-61.361 l 0,0 c 8.016,-2.648 16.559,-3.91 25.141,-3.91 l 0,0 c 21.248,0.02 42.817,7.685 57.31,21.871 l 0,0 c 19.931,-3.805 37.619,-5.63 52.403,-5.63 l 0,0 c 13.025,0.009 23.787,1.401 31.963,4.241 l 0,-0.001 c 8.108,2.819 14.011,7.254 16.013,13.754 l 10e-4,0 -0.003,0.001 c 0.703,2.239 1.047,4.521 1.047,6.8 l 0,0 c -0.136,12.682 -9.987,24.145 -24.231,34.84 l 0,-0.001 c -13.978,10.414 -32.599,20.102 -52.357,28.48 l 0,0 c -5.812,28.843 -25.37,51.621 -54.517,61.196 l 0,0 c -8.899,2.937 -18.12,4.363 -27.243,4.363 l 0,0 c -20.977,-0.004 -41.48,-7.537 -56.298,-21.794 l 0,0 z m 3.227,-5.582 c 13.571,13.716 33.041,21.142 53.071,21.138 l 0,0 c 8.471,0 17.041,-1.328 25.288,-4.049 l 0,-10e-4 c 27.631,-9.157 45.56,-30.49 50.655,-58.055 l 0,0 0.305,-1.663 1.557,-0.652 c 20.02,-8.392 38.898,-18.175 52.579,-28.382 l 0.001,0 c 13.778,-10.199 21.86,-20.829 21.725,-29.838 l 0,0 c 0,-1.664 -0.25,-3.306 -0.77,-4.96 l 10e-4,0 2.975,-0.939 -2.984,0.904 c -1.083,-3.689 -4.876,-7.146 -12.095,-9.669 l 0.001,0 c -7.148,-2.5 -17.343,-3.897 -29.911,-3.889 l 0,0 c -14.663,-0.004 -32.559,1.867 -52.846,5.828 l 0,0 -1.663,0.324 -1.177,-1.218 C 252.831,180.37 232.099,172.66 211.786,172.681 l 0,-0.001 c -7.973,0 -15.865,1.173 -23.181,3.594 -27.799,9.187 -48.848,30.781 -53.803,58.165 l 0,0 -0.292,1.608 -1.485,0.677 c -24.033,10.922 -43.575,21.735 -56.9128,32.064 l 0,0 c -13.4316,10.338 -20.1943,20.131 -20.0846,28.184 l 0,0 c 0,1.663 0.2588,3.288 0.8296,5.015 l 0,0 c 1.0235,3.524 4.7102,6.826 11.7771,9.221 l 0,-0.001 c 6.9956,2.375 16.9562,3.674 29.165,3.67 l 0,0 c 16.0347,0 35.9577,-2.205 58.4657,-6.759 l 0.001,0 1.65,-0.338 1.185,1.197 z"
       id="path6507"
       style="fill:#c29800;fill-opacity:1;stroke:none" />
    <path
       d="m 366.489,201.577 c -4.873,-16.13 -42.906,-20.72 -98.432,-9.888 -19.123,-19.804 -53.224,-27.357 -80.429,-18.377 -28.717,9.476 -50.7,31.908 -55.893,60.571 -53.2361,24.206 -84.8461,47.888 -77.8636,69.005 4.9621,16.447 45.824,19.868 103.0136,8.287 20.261,20.453 52.729,27.375 81.556,17.853 28.663,-9.459 47.501,-31.858 52.743,-60.455 44.02,-18.459 82.709,-43.538 75.305,-66.995 l 0,-0.001 z"
       id="path6509"
       style="fill:black;stroke:none" />
    <path
       d="m 360.355,205.167 c -4.607,-14.703 -43.507,-16.472 -95.949,-6.598 -19.125,-19.112 -47.995,-27.119 -75.522,-18.351 -27.121,8.636 -45.854,31.312 -50.763,57.439 -50.2776,22.063 -82.4843,46.261 -77.8218,61.226 4.6849,14.991 45.0548,16.538 99.0678,5.984 19.134,18.644 47.654,26.406 74.883,17.723 27.073,-8.617 45.793,-31.227 50.742,-57.293 48.862,-21.765 79.964,-45.425 75.363,-60.13 l 0,0 z"
       id="path6511"
       style="fill:white;stroke:none" />
    <path
       d="m 360.355,205.167 c -4.607,-14.703 -43.507,-16.472 -95.949,-6.598 -19.125,-19.112 -47.995,-27.119 -75.522,-18.351 -27.121,8.636 -45.854,31.312 -50.763,57.439 -50.2776,22.063 -82.4843,46.261 -77.8218,61.226 4.6849,14.991 45.0548,16.538 99.0678,5.984 19.134,18.644 47.654,26.406 74.883,17.723 27.073,-8.617 45.793,-31.227 50.742,-57.293 48.862,-21.765 79.964,-45.425 75.363,-60.13 l 0,0 z"
       id="path6513"
       style="fill:white;stroke:none" />
    <path
       d="m 214.443,274.722 c 2.732,3.306 12.355,13.017 18.562,18.027 -1.402,5.226 -12.25,15.137 -13.721,16.105 -7.892,1.201 -20.653,-1.961 -28.737,-5.039 -2.964,-5.8 -4.387,-12.834 -3.331,-20.712 4.63,-0.872 20.982,-4.904 27.227,-8.381 l 0,0 z"
       id="path6515"
       style="fill:#244e97;fill-opacity:1;stroke:none" />
    <path
       d="m 213.052,240.546 c 1.277,-2.142 1.363,-2.709 1.85,-3.676 5.472,-3.071 27.784,-7.724 27.697,-8.819 -0.388,-5.956 -2.981,-13.647 -4.439,-14.818 -5.229,-2.463 -25.703,-6.183 -27.45,-5.297 -5.91,6.255 -12.018,19.282 -12.405,20.69 4.363,2.767 10.347,7.805 14.747,11.921 l 0,-0.001 z"
       id="path6517"
       style="fill:#244e97;fill-opacity:1;stroke:none" />
    <path
       d="m 262.713,251.553 c 1.199,-0.635 10.709,-8.18 11.993,-7.94 0.564,0.104 3.188,1.668 4.651,6.623 1.568,5.844 -3.409,23.924 -7.527,31.82 -1.043,1.386 -1.593,3.401 -6.501,6.082 -1.543,-2.248 -4.855,-4.812 -7.344,-6.153 5.47,-10.374 6.155,-24.778 4.728,-30.431 l 0,-0.001 z"
       id="path6519"
       style="fill:#244e97;fill-opacity:1;stroke:none" />
    <path
       d="m 172.224,236.622 c -1.777,3.842 -3.834,10.046 -5.125,15.555 -0.207,0.506 -17.564,5.861 -18.142,5.71 -2.776,-9.529 -1.698,-22.439 1.393,-27.63 4.262,-3.996 8.719,-7.637 9.578,-7.399 0.824,0.215 9.364,11.687 12.296,13.764 l 0,0 z"
       id="path6521"
       style="fill:#244e97;fill-opacity:1;stroke:none" />
    <path
       d="m 170.094,199.12 c 8.183,-5.343 20.196,-7.199 28.428,-5.965 3.236,-4.72 9.903,-7.51 16.626,-8.666 -10.499,-2.282 -35.418,3.903 -45.054,14.631 l 0,0 z"
       id="path6523"
       style="fill:#244e97;fill-opacity:1;stroke:none" />
    <path
       d="m 175.889,309.295 c 26.357,15.759 52.276,9.992 65.85,2.882 20.265,-10.198 31.566,-28.702 35.199,-43.825 -1.593,0.363 -11.238,6.6 -11.944,6.615 -6.168,17.875 -14.443,24.291 -28.044,32.886 -18.346,10.584 -41.226,12.037 -60.477,0.847 l -0.584,0.595 z"
       id="path6525"
       style="fill:black;stroke:none" />
    <path
       d="m 152.52,291.593 c -0.746,3.341 -4.504,3.716 -7.531,4.077 -27.835,3.357 -48.7598,0.48 -49.5304,-9.618 -1.1397,-9.129 18.1164,-25.162 36.2724,-30.69 0,0 6.608,-2.323 8.09,0.971 -0.162,-7.41 0.014,-10.037 0.281,-13.111 -9.999,4.335 -73.1262,33.242 -70.147,52.112 1.8873,12.485 46.448,12.588 90.053,5.572 0,0 -5.084,-4.831 -7.488,-9.313 l 0,0 z"
       id="path6527"
       style="fill:black;stroke:none" />
    <path
       d="m 166.482,299.274 c 25.627,-5.659 32.999,-7.497 55.467,-14.418 52.819,-16.261 133.056,-54.738 127.933,-76.169 -4.664,-16.429 -67.295,-8.138 -85.97,-3.754 -0.222,0.047 -1.741,0.366 -3.275,0.677 -21.555,-22.51 -55.738,-27.508 -80.149,-13.584 l 0.074,0.827 c 29.668,-13.25 62.184,-3.947 80.075,30.374 0.147,-0.037 9.024,-1.081 11.996,0.281 -1.355,-3.306 -4.647,-9.008 -8.404,-13.779 1.265,-0.335 2.214,-0.576 2.286,-0.595 22.809,-5.848 55.973,-8.574 62.24,4.704 5.926,15.323 -37.642,42.227 -109.955,64.881 -21.71,7.063 -34.627,9.897 -58.091,14.776 1.716,2.293 5.773,5.779 5.773,5.779 l 0,0 z"
       id="path6529"
       style="fill:black;stroke:none" />
    <path
       d="m 211.201,252.884 -2.394,4.278 -0.382,0.066 -1.918,-2.701 -6.399,-7.626 -10.687,3.372 13.593,14.171 -0.893,1.29 c -1.35,1.996 -3.56,3.161 -6.811,4.18 -1.441,0.465 -2.583,0.71 -3.71,0.856 l -0.88,3.675 c 1.816,-0.251 3.552,-0.651 5.522,-1.271 10.405,-3.377 13.019,-6.729 15.361,-10.339 l 16.645,-25.019 -9.857,3.128 -7.19,11.94 z"
       id="path6531"
       style="fill:black;stroke:none" />
    <path
       d="m 253.73,229.357 c -1.596,0.477 -8.272,2.821 -12.255,7.277 l -0.079,-10e-4 0.128,-3.05 -8.493,2.667 -1.217,25.26 9.629,-3.134 0.397,-6.834 -0.101,-2.893 0.157,0 c 1.909,0.805 5.099,0.936 10.486,-0.714 8.034,-2.593 16.059,-7.75 16.374,-14.371 0.313,-6.629 -6.686,-6.87 -15.026,-4.207 l 0,0 z m -3.58,15.557 c -3.865,1.257 -8.067,0.991 -7.867,-2.827 0.187,-3.804 4.567,-6.887 8.447,-8.139 3.945,-1.255 8.129,-0.904 7.939,2.893 -0.187,3.732 -4.577,6.819 -8.519,8.073 l 0,0 z"
       id="path6533"
       style="fill:black;stroke:none" />
    <path
       d="m 301.62,214.154 9.631,-3.052 -0.911,17.806 -9.615,3.137 0.38,-7.687 -15.541,5.007 -0.399,7.693 -9.624,3.063 0.898,-17.816 9.628,-3.132 -0.29,6.769 15.459,-5.011 0.384,-6.777 z"
       id="path6535"
       style="fill:black;stroke:none" />
    <path
       d="m 130.228,268.818 c -5.004,1.641 -9.168,3.275 -13.638,5.526 l -0.125,3.734 c 4.399,-2.549 8.021,-4.187 11.883,-5.362 1.15,-0.472 7.897,-2.507 8.083,0.388 l 0,0.76 -0.829,0.229 c -1.738,0.553 -3.641,1.182 -5.404,1.734 -15.675,5.017 -18.465,9.3 -18.583,11.728 -0.132,2.82 3.465,4.222 12.792,1.246 8.026,-2.588 10.895,-5.585 11.731,-6.581 l 0.146,-0.074 -0.193,2.67 9.471,-3.045 0.574,-11.275 c 0.125,-2.741 -0.977,-6.453 -15.908,-1.678 l 0,0 z m 6.081,8.389 c -0.187,3.865 -5.104,6.286 -9.06,7.624 -4.315,1.326 -5.829,0.813 -5.778,-0.413 0.131,-2.891 7.855,-5.394 13.17,-7.125 l 1.668,-0.531 0,0.445 z"
       id="path6537"
       style="fill:black;stroke:none" />
    <path
       d="m 151.515,265.948 0.199,-3.495 32.687,-10.498 -0.203,3.425 -11.521,3.759 -0.706,14.379 -9.639,3.137 0.713,-14.449 -11.53,3.742 z"
       id="path6539"
       style="fill:black;stroke:none" />
  </g>
</svg>
